<svg xmlns="http://www.w3.org/2000/svg"  viewBox="0 0 48 48" width="48px" height="48px"><path fill="#7cb342" d="M12 29c0 1.1-.9 2-2 2s-2-.9-2-2v-9c0-1.1.9-2 2-2s2 .9 2 2V29zM40 29c0 1.1-.9 2-2 2s-2-.9-2-2v-9c0-1.1.9-2 2-2s2 .9 2 2V29zM22 40c0 1.1-.9 2-2 2s-2-.9-2-2v-9c0-1.1.9-2 2-2s2 .9 2 2V40zM30 40c0 1.1-.9 2-2 2s-2-.9-2-2v-9c0-1.1.9-2 2-2s2 .9 2 2V40z"/><path fill="#7cb342" d="M14 18v15c0 1.1.9 2 2 2h16c1.1 0 2-.9 2-2V18H14zM24 8c-6 0-9.7 3.6-10 8h20C33.7 11.6 30 8 24 8zM20 13.6c-.6 0-1-.4-1-1 0-.6.4-1 1-1s1 .4 1 1C21 13.1 20.6 13.6 20 13.6zM28 13.6c-.6 0-1-.4-1-1 0-.6.4-1 1-1s1 .4 1 1C29 13.1 28.6 13.6 28 13.6z"/><path fill="#7cb342" d="M28.3 10.5c-.2 0-.4-.1-.6-.2-.5-.3-.6-.9-.3-1.4l1.7-2.5c.3-.5.9-.6 1.4-.3.5.3.6.9.3 1.4l-1.7 2.5C29 10.3 28.7 10.5 28.3 10.5zM19.3 10.1c-.3 0-.7-.2-.8-.5l-1.3-2.1c-.3-.5-.2-1.1.3-1.4.5-.3 1.1-.2 1.4.3l1.3 2.1c.3.5.2 1.1-.3 1.4C19.7 10 19.5 10.1 19.3 10.1z"/></svg>