<?xml version="1.0" encoding="iso-8859-1"?>
<!-- Generator: Adobe Illustrator 16.0.0, SVG Export Plug-In . SVG Version: 6.00 Build 0)  -->
<!DOCTYPE svg PUBLIC "-//W3C//DTD SVG 1.1//EN" "http://www.w3.org/Graphics/SVG/1.1/DTD/svg11.dtd">
<svg version="1.1" id="Capa_1" xmlns="http://www.w3.org/2000/svg" xmlns:xlink="http://www.w3.org/1999/xlink" x="0px" y="0px"
	 width="792px" height="792px" viewBox="0 0 792 792" style="enable-background:new 0 0 792 792;" xml:space="preserve">
<g>
	<path d="M609.804,792c0,0,74.196,0,74.196-72V72c0-72-74.196-72-74.196-72H182.196c0,0-74.196,0-74.196,72v648
		c0,72,74.196,72,74.196,72H609.804z M395.1,764.784c-15.408,0-27.9-12.097-27.9-27c0-14.904,12.492-27,27.9-27
		c15.408,0,27.9,12.096,27.9,27C422.964,752.724,410.472,764.784,395.1,764.784z M144,646.776V73.26C144,36,183.996,36,183.996,36
		h424.008c0,0,39.996,0,39.996,37.26v573.517C648,684,608.004,684,608.004,684H183.996C183.996,684,144,684,144,646.776z"/>
</g>
<g>
</g>
<g>
</g>
<g>
</g>
<g>
</g>
<g>
</g>
<g>
</g>
<g>
</g>
<g>
</g>
<g>
</g>
<g>
</g>
<g>
</g>
<g>
</g>
<g>
</g>
<g>
</g>
<g>
</g>
</svg>
